<svg width="24" height="24" viewBox="0 0 24 24" fill="none" xmlns="http://www.w3.org/2000/svg">
    <g clip-path="url(#clip0)">
        <path d="M22.6759 0H1.32414C0.972955 0 0.636155 0.139507 0.387831 0.387831C0.139507 0.636155 0 0.972955 0 1.32414L0 22.6759C0 23.027 0.139507 23.3638 0.387831 23.6122C0.636155 23.8605 0.972955 24 1.32414 24H12.8276V14.7186H9.70345V11.0855H12.8276V8.41241C12.8276 5.3131 14.7228 3.62483 17.4869 3.62483C18.4184 3.6228 19.3493 3.66976 20.2759 3.76552V7.00552H18.3724C16.8662 7.00552 16.5724 7.71724 16.5724 8.76828V11.0814H20.1724L19.7048 14.7145H16.5517V24H22.6759C23.027 24 23.3638 23.8605 23.6122 23.6122C23.8605 23.3638 24 23.027 24 22.6759V1.32414C24 0.972955 23.8605 0.636155 23.6122 0.387831C23.3638 0.139507 23.027 0 22.6759 0V0Z" fill="#4267B2" />
        <path d="M16.5516 24V14.7186H19.6841L20.1516 11.0855H16.5516V8.77241C16.5516 7.72138 16.8454 7.00966 18.3516 7.00966H20.2758V3.76552C19.3479 3.66961 18.4155 3.62265 17.4827 3.62483C14.7144 3.62483 12.8275 5.3131 12.8275 8.41241V11.0855H9.70337V14.7186H12.8275V24H16.5516Z" fill="white" />
    </g>
    <defs>
        <clipPath id="clip0">
            <rect width="24" height="24" fill="white" />
        </clipPath>
    </defs>
</svg>
