<svg width="24" height="24" viewBox="0 0 24 24" fill="none" xmlns="http://www.w3.org/2000/svg">
    <path d="M22.2667 0H1.73333C0.8 0 0 0.8 0 1.73333V22.2667C0 23.2 0.8 24 1.73333 24H22.1333C23.0667 24 23.8667 23.2 23.8667 22.2667V1.73333C24 0.8 23.2 0 22.2667 0Z" fill="#007BB6" />
    <path d="M3.60004 8.93337H7.20004V20.4H3.60004V8.93337ZM5.33337 3.33337C6.53337 3.33337 7.33337 4.26671 7.33337 5.33337C7.33337 6.40004 6.53337 7.46671 5.33337 7.46671C4.13337 7.46671 3.33337 6.53337 3.33337 5.33337C3.33337 4.13337 4.13337 3.33337 5.33337 3.33337Z" fill="white" />
    <path d="M9.33337 8.93329H12.8V10.5333C13.3334 9.59996 14.4 8.66663 16.1334 8.66663C19.7334 8.66663 20.4 11.0666 20.4 14.1333V20.4H16.8V14.8C16.8 13.4666 16.8 11.7333 14.9334 11.7333C13.0667 11.7333 12.8 13.2 12.8 14.6666V20.2666H9.33337V8.93329Z" fill="white" />
</svg>
