<svg width="24" height="24" viewBox="0 0 24 24" fill="none" xmlns="http://www.w3.org/2000/svg">
    <path d="M23 0H1C0.447715 0 0 0.447716 0 1V23C0 23.5523 0.447716 24 1 24H23C23.5523 24 24 23.5523 24 23V1C24 0.447715 23.5523 0 23 0Z" fill="#1DA1F2" />
    <path d="M9.21598 18.0959C14.874 18.0959 17.97 13.4039 17.97 9.34193C17.97 9.20993 17.97 9.07793 17.964 8.94593C18.564 8.51393 19.086 7.96793 19.5 7.34993C18.948 7.59593 18.354 7.75793 17.73 7.83593C18.366 7.45793 18.852 6.85193 19.086 6.13193C18.492 6.48593 17.832 6.73793 17.13 6.87593C16.566 6.27593 15.768 5.90393 14.886 5.90393C13.188 5.90393 11.808 7.28393 11.808 8.98193C11.808 9.22193 11.838 9.45593 11.886 9.68393C9.32998 9.55793 7.06198 8.32793 5.54398 6.46793C5.27998 6.92393 5.12998 7.45193 5.12998 8.01593C5.12998 9.08393 5.67598 10.0259 6.49798 10.5779C5.99398 10.5599 5.51998 10.4219 5.10598 10.1939C5.10598 10.2059 5.10598 10.2179 5.10598 10.2359C5.10598 11.7239 6.16798 12.9719 7.57198 13.2539C7.31398 13.3259 7.04398 13.3619 6.76198 13.3619C6.56398 13.3619 6.37198 13.3439 6.18598 13.3079C6.57598 14.5319 7.71598 15.4199 9.05998 15.4439C8.00398 16.2719 6.67798 16.7639 5.23798 16.7639C4.99198 16.7639 4.74598 16.7519 4.50598 16.7219C5.86198 17.5859 7.48198 18.0959 9.21598 18.0959Z" fill="white" />
</svg>
